<?xml version="1.0" encoding="UTF-8"?>
<svg xmlns="http://www.w3.org/2000/svg" version="1.1" viewBox="0 0 96 96">
  <defs>
    <style>
      .cls-1 {
        fill: #fff;
      }

      .cls-1, .cls-2 {
        stroke-width: 0px;
      }

      .cls-2 {
        fill: #ff7bac;
      }
    </style>
  </defs>
  <g id="_レイヤー_2" data-name="レイヤー 2">
    <rect class="cls-2" x="0" y="0" width="96" height="96" rx="13.45" ry="13.45"/>
  </g>
  <g id="_レイヤー_1" data-name="レイヤー 1">
    <g>
      <path class="cls-1" d="M31.83,67.08v-11.56c0-1.17-.95-2.11-2.11-2.11h-15.24c-.56,0-1.1-.22-1.49-.62l-7.21-7.21c-.4-.4-.62-.93-.62-1.49v-7.74c0-.56.22-1.1.62-1.5l7.21-7.18c.4-.39.93-.62,1.49-.62h1.78c1.17,0,2.11.95,2.11,2.11v10.73c0,1.17.95,2.11,2.11,2.11h16.36c.57,0,1.12.23,1.52.64l6.94,7.19c.38.39.59.92.59,1.47v8.59c0,.56-.22,1.1-.62,1.49l-7.18,7.18c-.4.4-.93.62-1.49.62h-2.67c-1.17,0-2.11-.95-2.11-2.11ZM7.27,56.55h9.81c1.17,0,2.11.95,2.11,2.11v.79c0,1.17.95,2.11,2.11,2.11h6.19c1.17,0,2.11.95,2.11,2.11v3.4c0,1.17-.95,2.11-2.11,2.11h-14.27c-.62,0-1.21-.28-1.62-.75l-5.95-7.07c-.32-.38-.5-.86-.5-1.36v-1.34c0-1.17.95-2.11,2.11-2.11ZM20.59,32.53v-3.37c0-1.17.95-2.11,2.11-2.11h13.87c.56,0,1.1.22,1.5.62l6.07,6.09c.39.4.62.93.62,1.49v1.49c0,1.17-.95,2.11-2.11,2.11h-8.7c-1.17,0-2.11-.95-2.11-2.11h0c0-1.17-.95-2.11-2.11-2.11h-7.02c-1.17,0-2.11-.95-2.11-2.11Z"/>
      <path class="cls-1" d="M52.69,67.08V29.17c0-1.17.95-2.11,2.11-2.11h9.81c1.17,0,2.11.95,2.11,2.11v37.91c0,1.17-.95,2.11-2.11,2.11h-9.81c-1.17,0-2.11-.95-2.11-2.11ZM68.88,56.33v-12.98c0-.4.11-.79.32-1.12l8.9-14.18c.39-.62,1.06-.99,1.79-.99h9.46c1.69,0,2.7,1.89,1.75,3.29l-18.36,27.16c-1.17,1.72-3.86.9-3.86-1.18ZM90.52,69.19h-10.37c-.81,0-1.55-.46-1.9-1.19l-3.66-7.53c-.33-.67-.27-1.47.14-2.09l5.67-8.5c.89-1.34,2.89-1.23,3.63.19l8.36,16.04c.73,1.41-.29,3.09-1.87,3.09Z"/>
    </g>
  </g>
</svg>